<svg xmlns="http://www.w3.org/2000/svg" xmlns:xlink="http://www.w3.org/1999/xlink" preserveAspectRatio="xMidYMid meet" version="1.0" viewBox="-9.7 0.0 573.7 533.6" zoomAndPan="magnify" style="fill: rgb(0, 0, 0);" original_string_length="49999"><g id="__id0_sxwz28tzdr"><path d="M563.934,533.646l-89.821-1.339l-0.006,0.421c-0.026-6.486-3.222-159.4-222.671-213.042 c-85.442-20.888-195.865-70.013-236.715-185.45C-9.671,65.304,3.248,6.48,4.801,0l87.359,20.94l0.083-0.357 c-0.091,0.409-8.903,41.556,8.441,87.157c22.987,60.439,80.884,102.388,172.084,124.682 c82.699,20.214,193.954,66.782,254.345,173.841C563.779,471.263,564.028,527.452,563.934,533.646z" style="fill: rgb(30, 45, 84);"/></g><g id="__id1_sxwz28tzdr"><path d="M47.374,10.557l0.3,0.109c0.25,0.019,0.15-0.08,0.332-0.085c0.166,0.028,0.183,0.066,0.216,0.096 c0.279,0.257,0.369,0.479,0.478,0.704c0.154,0.316,0.297,0.626,0.518,0.949c0.241,0.353,0.396,0.69,0.585,1.03 c0.134,0.245,0.273,0.5,0.39,0.714c0.135,0.306,0.249,0.564,0.376,0.852c0.14,0.302,0.179,0.588,0.213,0.873 c0.012,0.103-0.017,0.2-0.019,0.301c-0.005,0.368-0.011,0.771-0.016,1.124c-0.016,0.231-0.025,0.361-0.038,0.557 c-0.003,0.064-0.014,0.127,0.013,0.195c0.046,0.114,0.089,0.227-0.056,0.311c-0.034,0.02-0.034,0.049-0.015,0.078 c0.153,0.231,0.002,0.418,0.028,0.631c0.024,0.191,0.001,0.375-0.007,0.561c-0.012,0.243-0.02,0.408-0.035,0.703 c0.009,0.177,0.025,0.47,0.035,0.662c-0.016,0.195-0.015,0.186-0.029,0.35c-0.003,0.3,0.021,0.602,0.001,0.899 c-0.047,0.433-0.082,0.744-0.123,1.124c-0.054,0.62-0.109,1.25-0.164,1.875l-0.032,0.332c-0.004,0.042-0.023,0.083-0.005,0.128 c0.112,0.278,0.034,0.538,0.045,0.806c0.009,0.197,0.077,0.399,0.114,0.598c0.011,0.059,0.035,0.121,0.005,0.176 c-0.097,0.172-0.061,0.356-0.023,0.541c0.044,0.217,0.004,0.427-0.007,0.639c-0.015,0.274-0.025,0.475-0.042,0.796 c0,0.128,0.076,0.262,0.064,0.388c-0.032,0.359-0.058,0.719-0.044,1.081c0.019,0.454,0.089,0.911,0.147,1.367 c0.003,0.02,0.009,0.065,0.009,0.065c0.023,0.562,0.046,1.152,0.067,1.662c-0.011,0.359-0.017,0.549-0.027,0.858 c0.004,0.493,0.008,1.056,0.011,1.512c-0.004,0.254-0.054,0.506-0.084,0.759c-0.043,0.351-0.084,0.679-0.133,1.075 c-0.016,0.11-0.087,0.218-0.105,0.328c-0.024,0.241-0.031,0.317-0.053,0.538c-0.029,0.216-0.005,0.435-0.161,0.646 c-0.019,0.025-0.015,0.053-0.016,0.079c-0.015,0.308,0,0.616-0.051,0.923c-0.056,0.338-0.171,0.673-0.26,1.011 c-0.011,0.042-0.026,0.099-0.033,0.127c-0.081,0.482-0.327,0.956-0.647,1.43c-0.046,0.067-0.122,0.134-0.223,0.197 c-0.339,0.212-0.476,0.437-0.629,0.662c-0.139,0.204-0.313,0.407-0.584,0.604c-0.18,0.149-0.315,0.261-0.481,0.399 c-0.199,0.158-0.383,0.318-0.626,0.474c-0.164,0.105-0.418,0.202-0.636,0.303c-0.031,0.014-0.074,0.031-0.131,0.037 c-0.419,0.04-0.643,0.122-0.876,0.203c-0.038,0.008-0.101,0.022-0.154,0.033c-0.503,0.099-0.503,0.099-0.742,0.215 c-0.143-0.09-0.212-0.177-0.544-0.237c-0.086-0.015-0.087-0.061-0.091-0.093c-0.008-0.068-0.066-0.127-0.284-0.182 c-0.235-0.06-0.295-0.137-0.318-0.216c-0.061-0.204-0.251-0.403-0.669-0.592c-0.096-0.044-0.166-0.096-0.168-0.143 c-0.006-0.171-0.072-0.341-0.031-0.512c0.039-0.163-0.042-0.331-0.155-0.496c-0.159-0.232-0.279-0.463-0.267-0.696 c0.01-0.204-0.056-0.409-0.088-0.614c-0.01-0.067-0.003-0.133-0.027-0.199c-0.02-0.055-0.034-0.112-0.119-0.164 c-0.155-0.094-0.19-0.187-0.191-0.281c-0.001-0.104,0.04-0.209-0.132-0.314c-0.017-0.011-0.022-0.033-0.022-0.033 c0.103-0.217-0.198-0.433-0.364-0.65c-0.099-0.13-0.016-0.254-0.035-0.381c-0.008-0.056,0.025-0.11-0.003-0.166 c-0.116-0.23-0.139-0.459-0.222-0.688c-0.197-0.552-0.021-1.091-0.074-1.638c-0.028-0.285,0.02-0.567,0.093-0.847 c0.037-0.142-0.027-0.291-0.023-0.435c0.029-0.781,0.057-1.55,0.086-2.32c0.025-0.456,0.048-0.866,0.076-1.368 c0.005-0.267-0.057-0.539-0.055-0.807c0.005-0.408,0.029-0.814,0.059-1.219l0.104-1.08c0.019-0.199-0.046-0.408,0.074-0.596 c0.202-0.318-0.039-0.672,0.053-0.998c0.056-0.196,0.027-0.401,0.023-0.603c-0.006-0.202-0.057-0.408-0.049-0.608 c0.035-0.405,0.06-0.699,0.09-1.05c0.008-0.089-0.01-0.181,0.009-0.269c0.08-0.346,0.163-0.701,0.259-1.117 c0.101-0.351,0.23-0.797,0.329-1.141c0.076-0.338,0.116-0.52,0.187-0.837c0.083-0.338,0.139-0.68,0.297-1.008 c0.101-0.213,0.114-0.435,0.167-0.653c0.052-0.187,0.12-0.436,0.175-0.635c0.017-0.065,0.023-0.132,0.026-0.199 c0.023-0.481,0.207-0.94,0.275-1.415c0.023-0.134,0.042-0.251,0.07-0.412c0.012-0.156,0.09-0.302,0.128-0.455 c0.049-0.214,0.081-0.354,0.127-0.557c0.089-0.343,0.195-0.75,0.272-1.044c0.072-0.379,0.121-0.639,0.188-0.99 c0.019-0.087,0.088-0.166,0.115-0.252c0.019-0.059,0.02-0.121,0.002-0.185c-0.04-0.139-0.01-0.262,0.308-0.326 c0.074-0.015,0.111-0.045,0.123-0.075c0.057-0.143,0.078-0.292,0.201-0.423c0.076-0.08,0.022-0.188,0.06-0.277 c0.094-0.228,0.174-0.459,0.32-0.675c0.146-0.216,0.212-0.448,0.445-0.646c0.123-0.103,0.084-0.246,0.081-0.378 c-0.004-0.155-0.051-0.318-0.071-0.477c-0.008-0.06,0.018-0.113,0.227-0.113c0.169,0,0.191-0.039,0.214-0.081 c0.053-0.093,0.116-0.201,0.169-0.293c0.014-0.026,0.032-0.052,0.019-0.083c-0.081-0.185,0.016-0.329,0.101-0.482 c0.057-0.102,0.196-0.178,0.403-0.235l0.506-0.153c0.03-0.009,0.092-0.006,0.174-0.01c0.201,0.109,0.195,0.182,0.236,0.258 l0.118,0.212c0.024-0.005,0.066-0.013,0.066-0.013c0.034-0.015,0.066-0.034,0.189,0.005c0.054,0.017,0.082,0.043,0.122,0.066 l-0.022,0.008L47.374,10.557z M46.641,82.461l0.017-0.015c-0.046-0.006-0.081-0.019-0.138-0.015 c-0.128,0.01-0.151,0.039-0.177,0.064c0,0-0.036,0.023-0.056,0.035l-0.187-0.148c-0.066-0.051-0.087-0.113-0.314-0.132 c-0.075,0.033-0.134,0.052-0.158,0.07l-0.415,0.31c-0.171,0.125-0.273,0.241-0.29,0.352c-0.024,0.165-0.064,0.333,0.078,0.471 c0.024,0.023,0.016,0.053,0.012,0.081c-0.017,0.102-0.037,0.223-0.054,0.325c-0.007,0.046-0.013,0.091-0.172,0.15 c-0.196,0.073-0.201,0.131-0.173,0.183c0.073,0.139,0.174,0.272,0.232,0.413c0.05,0.12,0.137,0.237,0.059,0.374 c-0.15,0.263-0.132,0.501-0.195,0.751c-0.062,0.25-0.058,0.491-0.068,0.734c-0.004,0.096,0.082,0.177,0.037,0.278 c-0.072,0.164-0.039,0.309-0.044,0.462c-0.001,0.033-0.026,0.073-0.09,0.112c-0.277,0.168-0.262,0.292-0.177,0.408 c0.04,0.054,0.059,0.112,0.062,0.173c0.004,0.089-0.034,0.186-0.022,0.273c0.054,0.35,0.095,0.609,0.153,0.987 c0.028,0.3,0.066,0.715,0.099,1.065c0.023,0.206,0.039,0.347,0.063,0.564c0.013,0.155-0.013,0.319,0.028,0.469 c0.037,0.134,0.046,0.273,0.073,0.409c0.096,0.467,0.079,0.958,0.211,1.418c0.018,0.064,0.035,0.129,0.04,0.195 c0.014,0.205,0.032,0.461,0.045,0.654c0.022,0.222,0.084,0.435,0.06,0.668c-0.038,0.359,0.021,0.7,0.049,1.046 c0.038,0.322,0.059,0.506,0.099,0.849c0.02,0.356,0.046,0.819,0.066,1.181c0.045,0.424,0.083,0.786,0.12,1.138 c0.011,0.089,0.058,0.17,0.079,0.256c0.086,0.341,0.158,0.626,0.257,1.02c0.057,0.192,0.177,0.368,0.25,0.556 c0.074,0.188,0.164,0.373,0.175,0.577c0.018,0.339,0.36,0.594,0.271,0.961c-0.054,0.217,0.078,0.392,0.126,0.586l0.261,1.052 c0.106,0.393,0.204,0.787,0.336,1.173c0.086,0.254,0.233,0.491,0.316,0.745c0.139,0.483,0.252,0.878,0.378,1.317 c0.223,0.738,0.445,1.475,0.671,2.223c0.044,0.138,0.154,0.257,0.166,0.403c0.024,0.288,0.072,0.57,0.194,0.83 c0.234,0.499,0.229,1.07,0.601,1.527c0.153,0.19,0.25,0.399,0.435,0.578c0.044,0.043,0.031,0.106,0.057,0.156 c0.06,0.114,0.022,0.259,0.158,0.349c0.228,0.151,0.582,0.258,0.558,0.496c0,0,0.013,0.02,0.032,0.024 c0.197,0.043,0.194,0.155,0.231,0.253c0.033,0.089,0.097,0.165,0.276,0.203c0.098,0.021,0.13,0.071,0.167,0.116 c0.044,0.055,0.059,0.12,0.09,0.18c0.095,0.184,0.224,0.357,0.28,0.554c0.064,0.225,0.251,0.405,0.476,0.572 c0.161,0.119,0.294,0.251,0.311,0.418c0.018,0.175,0.137,0.314,0.2,0.473c0.017,0.044,0.1,0.07,0.206,0.08 c0.457,0.042,0.703,0.167,0.828,0.34c0.049,0.067,0.131,0.12,0.373,0.1c0.225-0.019,0.299,0.017,0.329,0.079 c0.014,0.029,0.031,0.072,0.116,0.059c0.334-0.053,0.427,0.007,0.593,0.045c0.187-0.188,0.187-0.188,0.629-0.446 c0.047-0.028,0.101-0.062,0.134-0.082c0.194-0.153,0.378-0.303,0.761-0.479c0.052-0.024,0.087-0.054,0.111-0.078 c0.172-0.166,0.38-0.341,0.5-0.494c0.178-0.226,0.299-0.438,0.434-0.652c0.112-0.185,0.202-0.335,0.323-0.534 c0.191-0.275,0.288-0.523,0.352-0.761c0.071-0.262,0.129-0.521,0.381-0.833c0.076-0.093,0.126-0.181,0.148-0.26 c0.154-0.554,0.231-1.082,0.142-1.561c-0.002-0.029-0.007-0.087-0.011-0.13c-0.026-0.348-0.026-0.702-0.084-1.04 c-0.052-0.306-0.167-0.593-0.253-0.888c-0.007-0.025-0.021-0.05-0.011-0.08c0.078-0.249-0.012-0.45-0.053-0.664 c-0.052-0.216-0.069-0.291-0.126-0.526c-0.02-0.11,0.011-0.234-0.01-0.344c-0.085-0.39-0.156-0.712-0.231-1.058 c-0.053-0.249-0.086-0.504-0.164-0.746c-0.152-0.43-0.339-0.961-0.504-1.426c-0.092-0.295-0.149-0.476-0.256-0.82 c-0.185-0.476-0.399-1.026-0.603-1.551c0,0-0.02-0.041-0.029-0.058c-0.199-0.413-0.422-0.821-0.59-1.244 c-0.136-0.337-0.226-0.687-0.311-1.038c-0.03-0.124-0.145-0.226-0.186-0.347c-0.089-0.309-0.145-0.503-0.221-0.767 c-0.062-0.204-0.094-0.416-0.206-0.607c-0.097-0.163-0.191-0.325-0.155-0.52c0.011-0.062-0.032-0.112-0.062-0.165 c-0.1-0.176-0.23-0.346-0.304-0.529c-0.099-0.25-0.109-0.521-0.306-0.748c-0.032-0.036-0.027-0.081-0.038-0.122l-0.08-0.325 c-0.154-0.611-0.31-1.226-0.463-1.831c-0.087-0.373-0.159-0.68-0.259-1.106c-0.08-0.288-0.206-0.566-0.3-0.852 c-0.04-0.16-0.038-0.151-0.087-0.342c-0.074-0.18-0.187-0.452-0.255-0.617c-0.086-0.284-0.135-0.444-0.206-0.678 c-0.057-0.179-0.094-0.362-0.18-0.535c-0.095-0.193-0.012-0.423-0.236-0.589c-0.028-0.021-0.038-0.048-0.013-0.079 c0.107-0.129,0.028-0.221-0.054-0.314c-0.049-0.055-0.061-0.119-0.08-0.18c-0.055-0.191-0.091-0.317-0.155-0.541 c-0.115-0.337-0.246-0.721-0.366-1.073c-0.033-0.097-0.039-0.198-0.086-0.292c-0.13-0.259-0.268-0.516-0.5-0.754 c-0.22-0.229-0.416-0.434-0.649-0.678c-0.185-0.162-0.403-0.354-0.615-0.539c-0.3-0.255-0.565-0.519-0.913-0.766 c-0.318-0.226-0.567-0.466-0.824-0.706c-0.182-0.171-0.35-0.346-0.704-0.48c-0.042-0.016-0.071-0.044-0.236-0.009 c-0.167,0.072-0.038,0.126-0.277,0.201l-0.319,0.01L46.641,82.461z M69.956,150.452l0.011-0.02c-0.045,0.01-0.083,0.01-0.135,0.033 c-0.117,0.053-0.129,0.088-0.145,0.121c0,0-0.026,0.034-0.041,0.052l-0.227-0.075c-0.08-0.025-0.121-0.077-0.34-0.017 c-0.059,0.056-0.108,0.095-0.125,0.12l-0.284,0.434c-0.118,0.176-0.174,0.32-0.152,0.43c0.034,0.164,0.054,0.335,0.235,0.417 c0.03,0.014,0.033,0.044,0.039,0.072c0.019,0.102,0.042,0.222,0.061,0.324c0.01,0.046,0.019,0.09-0.11,0.2 c-0.159,0.136-0.144,0.192-0.1,0.232c0.116,0.105,0.257,0.196,0.359,0.309c0.088,0.095,0.21,0.176,0.184,0.332 c-0.05,0.299,0.048,0.516,0.075,0.773c0.028,0.257,0.115,0.482,0.189,0.714c0.029,0.091,0.138,0.139,0.13,0.249 c-0.012,0.179,0.069,0.305,0.117,0.45c0.01,0.031,0.001,0.078-0.046,0.136c-0.202,0.253-0.146,0.365-0.026,0.444 c0.056,0.037,0.094,0.085,0.117,0.141c0.034,0.082,0.032,0.186,0.073,0.264c0.172,0.311,0.298,0.54,0.483,0.876 c0.13,0.272,0.309,0.649,0.46,0.966c0.093,0.185,0.156,0.313,0.254,0.508c0.066,0.142,0.099,0.304,0.188,0.431 c0.082,0.141,0.142,0.243,0.209,0.359c0.251,0.406,0.405,0.872,0.688,1.26c0.039,0.054,0.077,0.109,0.105,0.17 c0.084,0.188,0.189,0.422,0.268,0.599c0.098,0.201,0.23,0.38,0.288,0.607c0.089,0.35,0.262,0.65,0.409,0.966 c0.146,0.289,0.23,0.455,0.386,0.764c0.142,0.328,0.327,0.753,0.472,1.086c0.188,0.383,0.349,0.71,0.506,1.028 c0.041,0.08,0.113,0.139,0.163,0.213c0.199,0.29,0.365,0.533,0.595,0.868c0.12,0.161,0.292,0.286,0.426,0.437 c0.134,0.151,0.284,0.293,0.364,0.48c0.135,0.312,0.544,0.432,0.588,0.808c0.026,0.221,0.207,0.343,0.32,0.508l0.61,0.897 c0.235,0.332,0.466,0.667,0.722,0.985c0.169,0.208,0.389,0.379,0.555,0.589c0.298,0.405,0.541,0.737,0.811,1.105 c0.465,0.615,0.929,1.229,1.401,1.853c0.089,0.114,0.234,0.187,0.296,0.32c0.123,0.262,0.266,0.509,0.47,0.711 c0.393,0.386,0.586,0.925,1.093,1.224c0.21,0.125,0.373,0.287,0.609,0.391c0.057,0.025,0.066,0.089,0.108,0.127 c0.096,0.086,0.111,0.235,0.27,0.273c0.266,0.062,0.635,0.039,0.695,0.272c0,0,0.019,0.014,0.039,0.011 c0.2-0.028,0.236,0.078,0.304,0.157c0.062,0.072,0.149,0.121,0.329,0.094c0.1-0.015,0.147,0.021,0.197,0.051 c0.06,0.037,0.097,0.093,0.147,0.138c0.153,0.139,0.334,0.257,0.455,0.422c0.138,0.189,0.376,0.292,0.645,0.371 c0.191,0.056,0.362,0.134,0.436,0.284c0.078,0.158,0.238,0.247,0.351,0.375c0.032,0.035,0.118,0.031,0.221,0.004 c0.443-0.119,0.717-0.087,0.894,0.032c0.069,0.046,0.165,0.067,0.384-0.036c0.204-0.096,0.286-0.087,0.336-0.04 c0.023,0.022,0.054,0.057,0.13,0.015c0.295-0.166,0.403-0.141,0.571-0.163c0.111-0.241,0.111-0.241,0.436-0.637 c0.034-0.043,0.073-0.093,0.098-0.123c0.129-0.21,0.249-0.416,0.547-0.713c0.041-0.041,0.063-0.081,0.078-0.111 c0.104-0.216,0.238-0.452,0.298-0.637c0.088-0.274,0.128-0.514,0.181-0.762c0.041-0.212,0.074-0.384,0.117-0.613 c0.084-0.324,0.088-0.59,0.066-0.836c-0.024-0.271-0.06-0.534,0.069-0.913c0.039-0.114,0.055-0.214,0.048-0.295 c-0.048-0.573-0.159-1.095-0.409-1.514c-0.012-0.026-0.037-0.08-0.055-0.119c-0.145-0.317-0.269-0.65-0.44-0.946 c-0.155-0.268-0.362-0.498-0.546-0.745c-0.016-0.021-0.036-0.039-0.038-0.071c-0.013-0.261-0.166-0.418-0.28-0.605 c-0.124-0.185-0.166-0.248-0.3-0.449c-0.057-0.096-0.071-0.224-0.129-0.319c-0.215-0.337-0.393-0.615-0.583-0.912 c-0.136-0.215-0.256-0.443-0.413-0.642c-0.291-0.35-0.651-0.784-0.966-1.163c-0.189-0.245-0.305-0.395-0.524-0.679 c-0.338-0.382-0.73-0.824-1.103-1.246c0,0-0.033-0.031-0.047-0.044c-0.33-0.318-0.681-0.623-0.985-0.962 c-0.244-0.269-0.448-0.567-0.651-0.866c-0.071-0.106-0.214-0.161-0.295-0.261c-0.191-0.259-0.31-0.421-0.473-0.643 c-0.129-0.169-0.23-0.359-0.402-0.498c-0.147-0.119-0.292-0.238-0.326-0.433c-0.011-0.062-0.069-0.094-0.115-0.133 c-0.155-0.131-0.336-0.244-0.468-0.391c-0.181-0.199-0.281-0.452-0.545-0.596c-0.042-0.023-0.053-0.067-0.078-0.102l-0.188-0.277 l-1.066-1.557c-0.211-0.32-0.384-0.582-0.625-0.947c-0.138-0.168-0.392-0.475-0.574-0.696c-0.093-0.136-0.088-0.129-0.199-0.29 c-0.132-0.143-0.331-0.359-0.452-0.49c-0.179-0.237-0.279-0.369-0.427-0.564c-0.113-0.149-0.212-0.308-0.352-0.44 c-0.156-0.148-0.156-0.392-0.425-0.472c-0.033-0.01-0.052-0.032-0.039-0.069c0.056-0.158-0.05-0.217-0.159-0.276 c-0.065-0.035-0.098-0.09-0.137-0.142c-0.117-0.16-0.194-0.266-0.331-0.455c-0.224-0.277-0.479-0.592-0.712-0.881 c-0.064-0.079-0.105-0.173-0.182-0.244c-0.211-0.198-0.429-0.392-0.728-0.536c-0.285-0.14-0.539-0.265-0.842-0.413 c-0.229-0.089-0.5-0.194-0.762-0.295c-0.369-0.137-0.709-0.294-1.12-0.406c-0.376-0.103-0.692-0.243-1.015-0.381 c-0.23-0.098-0.447-0.205-0.826-0.211c-0.045-0.001-0.082-0.017-0.225,0.072c-0.132,0.125,0.008,0.132-0.192,0.284l-0.297,0.119 L69.956,150.452z M115.189,206.316l0.004-0.023c-0.039,0.025-0.075,0.037-0.116,0.076c-0.093,0.089-0.092,0.126-0.096,0.162 c0,0-0.014,0.04-0.021,0.063l-0.239,0.004c-0.083,0.003-0.139-0.032-0.326,0.097c-0.037,0.072-0.07,0.125-0.078,0.155l-0.125,0.503 c-0.054,0.205-0.058,0.36-0.001,0.455c0.086,0.143,0.162,0.298,0.359,0.315c0.033,0.003,0.046,0.031,0.061,0.055 c0.052,0.089,0.113,0.195,0.165,0.285c0.024,0.04,0.047,0.079-0.038,0.225c-0.105,0.181-0.072,0.229-0.018,0.251 c0.144,0.061,0.307,0.099,0.441,0.172c0.114,0.061,0.256,0.096,0.282,0.252c0.051,0.298,0.215,0.471,0.325,0.704 c0.11,0.233,0.266,0.416,0.412,0.61c0.057,0.076,0.175,0.085,0.204,0.192c0.047,0.173,0.165,0.264,0.257,0.385 c0.02,0.026,0.026,0.073,0.001,0.144c-0.108,0.305-0.018,0.392,0.12,0.427c0.064,0.016,0.116,0.049,0.157,0.094 c0.059,0.067,0.091,0.165,0.155,0.225c0.263,0.236,0.458,0.411,0.741,0.666c0.211,0.214,0.502,0.511,0.748,0.761 c0.148,0.144,0.249,0.244,0.405,0.396c0.108,0.112,0.192,0.254,0.317,0.345c0.123,0.106,0.212,0.183,0.314,0.271 c0.368,0.301,0.664,0.691,1.056,0.964c0.054,0.038,0.108,0.078,0.154,0.126c0.14,0.15,0.314,0.337,0.445,0.479 c0.157,0.158,0.339,0.284,0.466,0.48c0.196,0.302,0.456,0.529,0.695,0.779c0.23,0.226,0.363,0.355,0.608,0.597 c0.239,0.264,0.548,0.606,0.792,0.874c0.3,0.301,0.556,0.559,0.804,0.809c0.064,0.062,0.151,0.095,0.222,0.149 c0.28,0.21,0.514,0.387,0.837,0.63c0.164,0.113,0.366,0.177,0.541,0.277c0.175,0.1,0.361,0.187,0.496,0.338 c0.225,0.252,0.651,0.236,0.81,0.577c0.094,0.201,0.304,0.258,0.462,0.378l0.858,0.656c0.326,0.24,0.65,0.484,0.991,0.704 c0.224,0.144,0.486,0.237,0.708,0.383c0.408,0.29,0.741,0.528,1.111,0.792c0.63,0.438,1.259,0.875,1.899,1.319 c0.119,0.081,0.279,0.105,0.379,0.212c0.197,0.21,0.407,0.401,0.663,0.529c0.491,0.245,0.839,0.695,1.41,0.823 c0.237,0.054,0.441,0.158,0.697,0.184c0.061,0.007,0.089,0.064,0.141,0.087c0.118,0.052,0.177,0.189,0.339,0.176 c0.272-0.023,0.616-0.158,0.743,0.045c0,0,0.022,0.008,0.04-0.001c0.182-0.088,0.248,0.002,0.336,0.056 c0.081,0.049,0.178,0.07,0.341-0.011c0.09-0.044,0.146-0.025,0.202-0.011c0.068,0.016,0.12,0.058,0.181,0.086 c0.188,0.086,0.395,0.143,0.56,0.262c0.188,0.137,0.445,0.163,0.726,0.156c0.199-0.005,0.385,0.018,0.5,0.138 c0.121,0.127,0.3,0.164,0.447,0.25c0.041,0.024,0.122-0.006,0.211-0.063c0.386-0.248,0.657-0.3,0.861-0.24 c0.08,0.023,0.177,0.015,0.355-0.15c0.166-0.153,0.247-0.17,0.308-0.139c0.029,0.014,0.068,0.038,0.128-0.025 c0.231-0.247,0.342-0.256,0.496-0.328c0.033-0.263,0.033-0.263,0.224-0.738c0.019-0.051,0.042-0.111,0.056-0.147 c0.06-0.239,0.113-0.471,0.307-0.845c0.027-0.051,0.036-0.096,0.04-0.13c0.034-0.237,0.091-0.503,0.092-0.697 c0.002-0.288-0.033-0.529-0.058-0.782c-0.026-0.215-0.046-0.389-0.074-0.62c-0.019-0.335-0.095-0.59-0.191-0.818 c-0.106-0.252-0.22-0.491-0.214-0.892c0.002-0.12-0.013-0.221-0.044-0.296c-0.222-0.532-0.488-0.998-0.856-1.322 c-0.02-0.021-0.06-0.065-0.089-0.097c-0.236-0.258-0.458-0.538-0.713-0.768c-0.231-0.209-0.5-0.365-0.752-0.545 c-0.022-0.015-0.047-0.026-0.058-0.056c-0.094-0.245-0.289-0.348-0.456-0.491c-0.176-0.138-0.236-0.186-0.427-0.336 c-0.084-0.074-0.138-0.192-0.223-0.264c-0.31-0.255-0.567-0.465-0.842-0.691c-0.197-0.163-0.383-0.343-0.596-0.484 c-0.388-0.244-0.868-0.545-1.287-0.809c-0.257-0.174-0.415-0.281-0.714-0.484c-0.443-0.258-0.956-0.557-1.445-0.841 c0,0-0.041-0.019-0.059-0.027c-0.416-0.199-0.846-0.379-1.243-0.606c-0.318-0.18-0.608-0.398-0.896-0.618 c-0.101-0.078-0.255-0.086-0.364-0.155c-0.264-0.186-0.43-0.303-0.655-0.462c-0.177-0.12-0.334-0.268-0.542-0.346 c-0.178-0.067-0.354-0.134-0.449-0.308c-0.03-0.055-0.096-0.067-0.152-0.089c-0.189-0.075-0.397-0.125-0.57-0.222 c-0.236-0.132-0.413-0.34-0.71-0.392c-0.047-0.008-0.072-0.046-0.107-0.072l-0.268-0.203l-1.516-1.136 c-0.304-0.235-0.554-0.429-0.9-0.697c-0.245-0.173-0.517-0.312-0.771-0.474c-0.132-0.098-0.126-0.093-0.284-0.211 c-0.171-0.093-0.431-0.233-0.588-0.318c-0.247-0.166-0.385-0.26-0.589-0.396c-0.156-0.104-0.302-0.222-0.478-0.302 c-0.196-0.09-0.277-0.321-0.557-0.308c-0.035,0.002-0.06-0.014-0.06-0.053c0.001-0.168-0.118-0.189-0.241-0.209 c-0.073-0.012-0.122-0.054-0.176-0.09c-0.163-0.114-0.271-0.189-0.463-0.322c-0.303-0.189-0.648-0.404-0.964-0.6 c-0.087-0.054-0.156-0.129-0.252-0.172c-0.265-0.118-0.534-0.23-0.866-0.268c-0.316-0.038-0.597-0.073-0.933-0.114 c-0.245-0.008-0.537-0.018-0.818-0.028c-0.394-0.008-0.766-0.044-1.192-0.014c-0.389,0.027-0.734-0.001-1.085-0.023 c-0.249-0.016-0.49-0.045-0.849,0.075c-0.042,0.014-0.083,0.011-0.188,0.143c-0.083,0.162,0.051,0.122-0.087,0.331l-0.241,0.21 L115.189,206.316z M175.092,246.155l-0.003-0.023c-0.031,0.034-0.063,0.055-0.092,0.103c-0.067,0.11-0.057,0.146-0.051,0.182 c0,0-0.003,0.043-0.004,0.066l-0.229,0.066c-0.08,0.024-0.143,0.005-0.29,0.178c-0.017,0.08-0.035,0.139-0.035,0.17l0.01,0.518 c0.001,0.212,0.036,0.363,0.116,0.44c0.12,0.116,0.232,0.245,0.426,0.21c0.033-0.006,0.052,0.018,0.073,0.038l0.232,0.232 c0.033,0.032,0.066,0.064,0.021,0.227c-0.055,0.202-0.011,0.24,0.047,0.247c0.155,0.021,0.321,0.016,0.468,0.051 c0.125,0.029,0.271,0.027,0.336,0.171c0.125,0.275,0.327,0.399,0.492,0.596c0.165,0.196,0.362,0.333,0.551,0.483 c0.075,0.059,0.191,0.037,0.245,0.132c0.089,0.155,0.225,0.213,0.345,0.307c0.025,0.02,0.044,0.064,0.037,0.138 c-0.027,0.322,0.081,0.383,0.223,0.382c0.066-0.001,0.124,0.018,0.175,0.051c0.074,0.049,0.129,0.136,0.206,0.178 c0.313,0.161,0.544,0.28,0.881,0.454c0.256,0.154,0.611,0.367,0.91,0.546c0.178,0.102,0.301,0.173,0.489,0.28 c0.132,0.081,0.248,0.197,0.391,0.253c0.145,0.072,0.25,0.124,0.369,0.183c0.429,0.199,0.81,0.502,1.255,0.668 c0.062,0.023,0.123,0.048,0.179,0.084c0.171,0.11,0.385,0.248,0.546,0.352c0.19,0.114,0.396,0.191,0.567,0.349 c0.263,0.244,0.568,0.399,0.86,0.582c0.277,0.162,0.435,0.255,0.731,0.428c0.294,0.197,0.675,0.452,0.974,0.652 c0.361,0.219,0.67,0.406,0.969,0.588c0.077,0.045,0.168,0.056,0.25,0.09c0.32,0.136,0.588,0.25,0.958,0.407 c0.186,0.07,0.396,0.083,0.588,0.138c0.192,0.055,0.392,0.094,0.558,0.209c0.277,0.19,0.684,0.072,0.918,0.364 c0.138,0.173,0.354,0.177,0.535,0.256l0.982,0.432c0.371,0.155,0.741,0.315,1.121,0.448c0.25,0.087,0.525,0.116,0.773,0.206 c0.461,0.186,0.838,0.338,1.257,0.508c0.71,0.279,1.418,0.557,2.138,0.84c0.134,0.051,0.294,0.038,0.415,0.119 c0.238,0.16,0.485,0.296,0.761,0.362c0.531,0.125,0.969,0.483,1.551,0.478c0.242-0.001,0.463,0.053,0.716,0.021 c0.061-0.007,0.101,0.042,0.156,0.053c0.126,0.024,0.213,0.144,0.368,0.094c0.259-0.084,0.563-0.294,0.731-0.125 c0,0,0.023,0.003,0.039-0.01c0.157-0.126,0.241-0.054,0.339-0.02c0.089,0.03,0.188,0.028,0.329-0.087 c0.078-0.063,0.136-0.057,0.194-0.056c0.07,0,0.129,0.03,0.195,0.044c0.201,0.042,0.415,0.05,0.601,0.13 c0.213,0.092,0.469,0.059,0.74-0.01c0.192-0.049,0.378-0.068,0.516,0.024c0.146,0.096,0.328,0.093,0.489,0.145 c0.045,0.014,0.117-0.033,0.191-0.108c0.322-0.327,0.573-0.437,0.786-0.425c0.083,0.005,0.176-0.025,0.313-0.225 c0.128-0.186,0.203-0.22,0.269-0.204c0.031,0.008,0.075,0.022,0.119-0.053c0.172-0.291,0.278-0.325,0.412-0.429 c-0.025-0.264-0.025-0.264,0.057-0.769c0.008-0.054,0.017-0.117,0.022-0.156c0.006-0.247,0.007-0.484,0.115-0.891 c0.015-0.056,0.013-0.102,0.011-0.135c-0.019-0.239-0.022-0.51-0.064-0.7c-0.062-0.281-0.149-0.509-0.229-0.75 c-0.073-0.204-0.131-0.369-0.21-0.589c-0.093-0.323-0.224-0.555-0.369-0.757c-0.159-0.222-0.325-0.43-0.409-0.823 c-0.025-0.118-0.062-0.212-0.11-0.279c-0.336-0.47-0.702-0.866-1.135-1.101c-0.024-0.016-0.073-0.05-0.109-0.074 c-0.29-0.199-0.57-0.422-0.872-0.59c-0.274-0.152-0.573-0.244-0.86-0.363c-0.025-0.01-0.052-0.015-0.07-0.042 c-0.148-0.219-0.363-0.274-0.558-0.376c-0.204-0.095-0.274-0.128-0.495-0.231c-0.099-0.053-0.179-0.156-0.279-0.207 c-0.363-0.178-0.662-0.325-0.983-0.483c-0.231-0.114-0.454-0.246-0.696-0.336c-0.436-0.149-0.975-0.332-1.447-0.493 c-0.293-0.11-0.472-0.178-0.812-0.306c-0.494-0.148-1.066-0.32-1.61-0.484c0,0-0.045-0.009-0.064-0.013 c-0.453-0.097-0.917-0.171-1.358-0.299c-0.353-0.101-0.688-0.244-1.022-0.39c-0.117-0.052-0.27-0.023-0.392-0.065 c-0.302-0.118-0.492-0.193-0.75-0.294c-0.201-0.076-0.39-0.181-0.612-0.207c-0.19-0.022-0.377-0.045-0.512-0.192 c-0.043-0.046-0.11-0.042-0.17-0.051c-0.203-0.027-0.418-0.027-0.609-0.08c-0.262-0.072-0.485-0.232-0.787-0.21 c-0.048,0.004-0.082-0.027-0.121-0.044l-0.311-0.132c-0.586-0.245-1.175-0.492-1.755-0.735c-0.354-0.154-0.645-0.281-1.049-0.456 c-0.281-0.108-0.581-0.176-0.868-0.271c-0.153-0.063-0.145-0.06-0.328-0.134c-0.19-0.048-0.477-0.12-0.651-0.163 c-0.282-0.1-0.44-0.156-0.671-0.239c-0.178-0.062-0.349-0.14-0.54-0.174c-0.213-0.038-0.35-0.242-0.619-0.16 c-0.033,0.01-0.062,0.002-0.071-0.036c-0.041-0.163-0.163-0.154-0.287-0.142c-0.074,0.007-0.132-0.021-0.194-0.043 c-0.187-0.069-0.311-0.115-0.531-0.197c-0.342-0.106-0.732-0.227-1.089-0.338c-0.098-0.03-0.184-0.086-0.289-0.103 c-0.287-0.047-0.577-0.088-0.908-0.041c-0.316,0.043-0.598,0.082-0.933,0.128c-0.24,0.055-0.524,0.119-0.799,0.182 c-0.383,0.093-0.752,0.154-1.156,0.293c-0.37,0.127-0.71,0.189-1.055,0.258c-0.245,0.049-0.485,0.083-0.8,0.292 c-0.037,0.025-0.077,0.032-0.144,0.187c-0.039,0.178,0.081,0.105,0.002,0.342l-0.178,0.266L175.092,246.155z M242.289,271.893 l-0.007-0.022c-0.024,0.039-0.052,0.066-0.072,0.119c-0.046,0.121-0.029,0.153-0.017,0.187c0,0,0.005,0.042,0.008,0.066l-0.214,0.11 c-0.074,0.04-0.14,0.033-0.253,0.231c-0.002,0.081-0.009,0.143-0.004,0.172l0.104,0.504c0.04,0.207,0.102,0.346,0.195,0.406 c0.139,0.089,0.273,0.193,0.459,0.121c0.031-0.012,0.055,0.007,0.079,0.022c0.085,0.057,0.185,0.124,0.271,0.181 c0.039,0.025,0.076,0.049,0.062,0.217c-0.018,0.208,0.033,0.236,0.091,0.232c0.156-0.01,0.32-0.048,0.471-0.042 c0.129,0.005,0.272-0.025,0.361,0.102c0.172,0.245,0.393,0.327,0.591,0.488c0.198,0.16,0.416,0.256,0.629,0.366 c0.084,0.043,0.194,0,0.265,0.082c0.116,0.134,0.26,0.167,0.393,0.236c0.029,0.015,0.054,0.054,0.061,0.129 c0.03,0.321,0.147,0.36,0.287,0.333c0.065-0.013,0.125-0.006,0.181,0.018c0.081,0.034,0.151,0.109,0.234,0.136 c0.336,0.1,0.584,0.174,0.947,0.281c0.279,0.105,0.664,0.25,0.989,0.372c0.193,0.068,0.325,0.115,0.529,0.187 c0.144,0.055,0.277,0.149,0.428,0.178c0.135,0.026,0.262,0.08,0.394,0.115c0.456,0.121,0.882,0.352,1.347,0.438 c0.065,0.012,0.129,0.026,0.19,0.051c0.187,0.079,0.42,0.179,0.596,0.253c0.205,0.081,0.421,0.121,0.615,0.248 c0.299,0.196,0.625,0.297,0.942,0.428c0.299,0.115,0.47,0.18,0.788,0.302c0.321,0.146,0.737,0.336,1.064,0.485 c0.39,0.159,0.723,0.294,1.047,0.426c0.082,0.032,0.174,0.029,0.259,0.05c0.336,0.084,0.617,0.155,1.006,0.252 c0.194,0.039,0.401,0.02,0.598,0.046c0.197,0.026,0.4,0.034,0.581,0.122c0.302,0.146,0.682-0.032,0.959,0.222 c0.163,0.15,0.376,0.121,0.566,0.174l1.022,0.281c0.374,0.088,0.711,0.167,1.149,0.27c0.254,0.049,0.523,0.036,0.777,0.088 c0.472,0.116,0.858,0.21,1.288,0.315c0.726,0.175,1.449,0.349,2.185,0.526c0.136,0.032,0.29-0.003,0.418,0.061 c0.251,0.125,0.508,0.227,0.785,0.254c0.532,0.052,1.001,0.344,1.567,0.265c0.235-0.033,0.457-0.007,0.701-0.072 c0.059-0.015,0.103,0.029,0.158,0.032c0.125,0.008,0.225,0.115,0.37,0.046c0.243-0.116,0.517-0.363,0.701-0.217 c0,0,0.023,0,0.037-0.015c0.14-0.145,0.23-0.083,0.329-0.062c0.091,0.019,0.187,0.005,0.312-0.126 c0.069-0.072,0.127-0.073,0.184-0.08c0.069-0.008,0.13,0.014,0.196,0.019c0.202,0.017,0.413-0.001,0.605,0.056 c0.219,0.065,0.467,0.002,0.727-0.1c0.184-0.072,0.365-0.111,0.511-0.036c0.153,0.079,0.332,0.054,0.496,0.087 c0.045,0.009,0.112-0.046,0.178-0.129c0.285-0.36,0.524-0.498,0.735-0.51c0.082-0.005,0.171-0.045,0.288-0.258 c0.109-0.198,0.18-0.241,0.248-0.232c0.032,0.004,0.077,0.013,0.113-0.066c0.142-0.308,0.245-0.353,0.368-0.471 c-0.051-0.258-0.051-0.258-0.018-0.767c0.002-0.054,0.005-0.118,0.007-0.156c-0.019-0.245-0.041-0.48,0.026-0.895 c0.009-0.057,0.003-0.102-0.003-0.135c-0.043-0.234-0.074-0.503-0.136-0.687c-0.091-0.272-0.203-0.488-0.31-0.719 c-0.095-0.194-0.172-0.352-0.275-0.562c-0.128-0.31-0.287-0.527-0.456-0.711c-0.186-0.202-0.377-0.389-0.507-0.77 c-0.039-0.114-0.088-0.204-0.144-0.265c-0.396-0.428-0.815-0.78-1.283-0.964c-0.026-0.013-0.08-0.041-0.12-0.061 c-0.319-0.163-0.632-0.351-0.96-0.482c-0.298-0.118-0.612-0.174-0.919-0.258c-0.026-0.007-0.055-0.009-0.076-0.033 c-0.179-0.2-0.405-0.227-0.617-0.304c-0.219-0.069-0.295-0.093-0.533-0.168c-0.108-0.041-0.203-0.132-0.312-0.171 c-0.392-0.131-0.717-0.239-1.064-0.355c-0.251-0.083-0.496-0.185-0.754-0.242c-0.463-0.09-1.036-0.201-1.537-0.298 c-0.313-0.069-0.504-0.111-0.868-0.192c-0.521-0.078-1.125-0.168-1.7-0.254c0,0-0.047-0.002-0.067-0.003 c-0.472-0.03-0.952-0.037-1.404-0.1c-0.364-0.05-0.719-0.14-1.072-0.236c-0.124-0.034-0.27,0.018-0.397-0.005 c-0.318-0.072-0.517-0.118-0.788-0.179c-0.211-0.046-0.415-0.12-0.638-0.111c-0.191,0.008-0.38,0.014-0.538-0.11 c-0.05-0.039-0.115-0.025-0.176-0.024c-0.205,0.004-0.417,0.039-0.615,0.016c-0.27-0.031-0.517-0.154-0.812-0.084 c-0.047,0.011-0.085-0.014-0.127-0.024l-0.329-0.081c-0.62-0.147-1.245-0.295-1.859-0.44c-0.376-0.093-0.686-0.169-1.115-0.275 c-0.296-0.06-0.604-0.077-0.905-0.12c-0.163-0.035-0.154-0.033-0.348-0.076c-0.196-0.014-0.493-0.035-0.673-0.048 c-0.296-0.05-0.462-0.078-0.706-0.119c-0.187-0.03-0.37-0.075-0.566-0.075c-0.218,0.001-0.389-0.175-0.64-0.046 c-0.031,0.016-0.061,0.013-0.077-0.023c-0.07-0.153-0.188-0.122-0.309-0.089c-0.072,0.02-0.135,0.003-0.199-0.008 c-0.197-0.034-0.328-0.057-0.56-0.097c-0.357-0.041-0.765-0.088-1.138-0.13c-0.102-0.012-0.198-0.05-0.304-0.047 c-0.292,0.007-0.586,0.019-0.906,0.13c-0.305,0.103-0.577,0.194-0.901,0.303c-0.227,0.099-0.497,0.217-0.757,0.33 c-0.362,0.164-0.716,0.295-1.091,0.51c-0.342,0.197-0.668,0.324-0.996,0.459c-0.233,0.096-0.464,0.176-0.737,0.443 c-0.032,0.031-0.071,0.047-0.108,0.211c-0.005,0.181,0.099,0.086,0.065,0.334l-0.127,0.294L242.289,271.893z M311.27,291.752 l-0.005-0.023c-0.027,0.037-0.055,0.062-0.079,0.114c-0.053,0.117-0.038,0.152-0.029,0.187c0,0,0.002,0.043,0.004,0.067 l-0.218,0.093c-0.076,0.034-0.14,0.022-0.263,0.213c-0.007,0.081-0.018,0.142-0.014,0.173l0.071,0.513 c0.026,0.21,0.078,0.355,0.165,0.422c0.131,0.1,0.255,0.214,0.442,0.156c0.031-0.01,0.053,0.011,0.076,0.028 c0.08,0.063,0.173,0.138,0.253,0.202c0.036,0.028,0.071,0.055,0.046,0.222c-0.032,0.207,0.015,0.239,0.073,0.239 c0.154,0.002,0.317-0.024,0.465-0.007c0.126,0.014,0.268-0.005,0.347,0.131c0.151,0.259,0.361,0.359,0.542,0.536 c0.181,0.176,0.387,0.289,0.588,0.417c0.079,0.05,0.19,0.015,0.253,0.104c0.102,0.143,0.241,0.187,0.366,0.267 c0.027,0.017,0.048,0.059,0.049,0.134c0.003,0.323,0.113,0.372,0.252,0.357c0.065-0.007,0.123,0.005,0.175,0.033 c0.076,0.041,0.138,0.122,0.217,0.155c0.32,0.128,0.556,0.223,0.901,0.361c0.263,0.129,0.626,0.307,0.932,0.457 c0.182,0.085,0.307,0.144,0.499,0.234c0.135,0.068,0.257,0.173,0.401,0.216c0.129,0.038,0.248,0.103,0.374,0.15 c0.434,0.161,0.825,0.434,1.271,0.562c0.062,0.018,0.124,0.038,0.181,0.069c0.174,0.097,0.392,0.217,0.556,0.308 c0.192,0.099,0.399,0.16,0.574,0.306c0.27,0.224,0.576,0.357,0.871,0.519c0.278,0.143,0.438,0.226,0.735,0.379 c0.295,0.178,0.678,0.41,0.979,0.591c0.361,0.198,0.669,0.367,0.968,0.531c0.076,0.04,0.166,0.047,0.247,0.077 c0.316,0.12,0.582,0.221,0.947,0.359c0.184,0.06,0.389,0.064,0.578,0.111c0.189,0.047,0.386,0.078,0.551,0.185 c0.274,0.179,0.671,0.047,0.905,0.33c0.138,0.167,0.35,0.163,0.528,0.237l0.965,0.404c0.358,0.137,0.681,0.26,1.1,0.42 c0.245,0.083,0.514,0.105,0.757,0.192c0.451,0.179,0.819,0.326,1.229,0.49c0.691,0.276,1.381,0.551,2.082,0.83 c0.13,0.051,0.287,0.039,0.404,0.121c0.23,0.159,0.467,0.299,0.736,0.367c0.516,0.13,0.936,0.488,1.506,0.495 c0.237,0.004,0.451,0.062,0.701,0.036c0.06-0.006,0.098,0.044,0.151,0.056c0.122,0.027,0.204,0.148,0.357,0.102 c0.257-0.078,0.565-0.28,0.723-0.108c0,0,0.022,0.003,0.038-0.009c0.159-0.122,0.239-0.047,0.334-0.011 c0.086,0.033,0.183,0.034,0.326-0.076c0.079-0.061,0.136-0.052,0.193-0.05c0.069,0.003,0.126,0.034,0.19,0.05 c0.196,0.048,0.407,0.064,0.586,0.151c0.205,0.099,0.459,0.075,0.73,0.016c0.192-0.042,0.376-0.053,0.508,0.046 c0.138,0.103,0.317,0.108,0.474,0.167c0.043,0.016,0.117-0.028,0.195-0.099c0.336-0.311,0.591-0.408,0.801-0.386 c0.082,0.009,0.175-0.016,0.323-0.209c0.138-0.179,0.214-0.209,0.279-0.19c0.031,0.009,0.073,0.026,0.121-0.047 c0.188-0.282,0.295-0.31,0.435-0.406c-0.01-0.264-0.01-0.264,0.101-0.763c0.011-0.053,0.023-0.116,0.031-0.154 c0.019-0.246,0.034-0.483,0.164-0.883c0.018-0.055,0.019-0.101,0.018-0.135c-0.006-0.239,0.004-0.511-0.028-0.703 c-0.048-0.285-0.125-0.517-0.194-0.763c-0.064-0.208-0.116-0.377-0.184-0.602c-0.079-0.328-0.201-0.57-0.34-0.779 c-0.153-0.23-0.313-0.446-0.384-0.843c-0.021-0.119-0.055-0.216-0.102-0.285c-0.326-0.487-0.686-0.904-1.122-1.158 c-0.024-0.017-0.073-0.053-0.11-0.079c-0.291-0.211-0.573-0.445-0.878-0.626c-0.277-0.163-0.579-0.268-0.871-0.396 c-0.025-0.011-0.053-0.017-0.071-0.044c-0.148-0.225-0.368-0.285-0.567-0.393c-0.207-0.101-0.279-0.136-0.504-0.246 c-0.101-0.056-0.182-0.161-0.284-0.216c-0.37-0.187-0.676-0.341-1.004-0.507c-0.237-0.118-0.466-0.255-0.713-0.349 c-0.448-0.155-1.001-0.346-1.485-0.513c-0.301-0.112-0.485-0.181-0.835-0.311c-0.508-0.148-1.096-0.32-1.656-0.484 c0,0-0.046-0.009-0.066-0.013c-0.466-0.094-0.941-0.166-1.395-0.287c-0.363-0.098-0.711-0.232-1.057-0.374 c-0.122-0.05-0.276-0.018-0.402-0.057c-0.313-0.112-0.51-0.182-0.777-0.277c-0.208-0.072-0.406-0.17-0.634-0.19 c-0.194-0.016-0.387-0.034-0.531-0.177c-0.046-0.045-0.114-0.039-0.176-0.045c-0.208-0.022-0.427-0.013-0.625-0.059 c-0.27-0.063-0.506-0.215-0.813-0.18c-0.049,0.006-0.085-0.024-0.126-0.039l-0.324-0.119c-0.611-0.217-1.227-0.436-1.832-0.652 c-0.371-0.135-0.676-0.245-1.099-0.399c-0.294-0.091-0.603-0.142-0.903-0.217c-0.161-0.053-0.153-0.05-0.344-0.113 c-0.196-0.035-0.494-0.088-0.674-0.12c-0.294-0.08-0.459-0.125-0.701-0.192c-0.186-0.049-0.367-0.113-0.564-0.132 c-0.219-0.021-0.377-0.214-0.641-0.111c-0.033,0.013-0.062,0.007-0.076-0.031c-0.057-0.16-0.179-0.141-0.304-0.12 c-0.074,0.012-0.136-0.011-0.2-0.027c-0.196-0.053-0.326-0.088-0.556-0.151c-0.356-0.075-0.763-0.161-1.135-0.24 c-0.102-0.021-0.195-0.069-0.302-0.076c-0.294-0.022-0.591-0.034-0.92,0.047c-0.313,0.075-0.593,0.143-0.925,0.223 c-0.234,0.079-0.512,0.174-0.78,0.264c-0.372,0.132-0.736,0.235-1.123,0.42c-0.354,0.169-0.686,0.271-1.02,0.379 c-0.238,0.077-0.472,0.14-0.758,0.385c-0.034,0.029-0.073,0.041-0.12,0.203c-0.017,0.182,0.092,0.094,0.043,0.34l-0.144,0.285 L311.27,291.752z M376.51,321.238l-0.001-0.023c-0.033,0.032-0.066,0.051-0.098,0.098c-0.072,0.106-0.064,0.142-0.061,0.179 c0,0-0.005,0.042-0.008,0.066l-0.231,0.054c-0.08,0.02-0.141-0.003-0.296,0.163c-0.021,0.079-0.043,0.137-0.045,0.167l-0.021,0.518 c-0.011,0.211,0.014,0.363,0.088,0.444c0.111,0.121,0.213,0.256,0.407,0.231c0.032-0.004,0.05,0.02,0.069,0.041l0.213,0.243 c0.031,0.034,0.06,0.066,0.006,0.226c-0.068,0.198-0.027,0.237,0.03,0.248c0.151,0.029,0.315,0.032,0.458,0.075 c0.121,0.036,0.265,0.043,0.318,0.19c0.102,0.281,0.29,0.417,0.437,0.623c0.147,0.205,0.329,0.353,0.503,0.514 c0.068,0.063,0.184,0.049,0.23,0.146c0.075,0.159,0.203,0.227,0.312,0.327c0.023,0.022,0.037,0.066,0.024,0.14 c-0.055,0.318,0.044,0.387,0.184,0.396c0.065,0.004,0.12,0.027,0.166,0.063c0.068,0.054,0.113,0.144,0.185,0.191 c0.291,0.183,0.506,0.318,0.819,0.515c0.234,0.174,0.559,0.414,0.832,0.616c0.163,0.116,0.275,0.197,0.447,0.32 c0.12,0.091,0.22,0.216,0.355,0.284c0.12,0.061,0.225,0.146,0.34,0.215c0.397,0.235,0.73,0.575,1.144,0.782 c0.058,0.029,0.114,0.06,0.165,0.1c0.153,0.126,0.344,0.284,0.488,0.403c0.17,0.133,0.362,0.229,0.506,0.405 c0.223,0.27,0.499,0.456,0.758,0.669c0.246,0.192,0.387,0.301,0.65,0.506c0.256,0.229,0.588,0.527,0.849,0.76 c0.316,0.261,0.587,0.483,0.85,0.7c0.067,0.054,0.154,0.076,0.227,0.121c0.287,0.176,0.528,0.324,0.861,0.528 c0.168,0.093,0.369,0.135,0.545,0.216c0.177,0.081,0.364,0.148,0.505,0.284c0.234,0.227,0.648,0.172,0.824,0.493 c0.103,0.189,0.312,0.225,0.472,0.331l0.868,0.576c0.324,0.202,0.617,0.383,0.996,0.619c0.224,0.127,0.484,0.199,0.705,0.33 c0.407,0.262,0.739,0.475,1.109,0.713c0.623,0.402,1.245,0.803,1.878,1.21c0.117,0.075,0.273,0.093,0.372,0.195 c0.194,0.2,0.399,0.383,0.649,0.501c0.48,0.227,0.82,0.659,1.377,0.774c0.231,0.049,0.429,0.149,0.678,0.171 c0.06,0.006,0.087,0.062,0.136,0.084c0.114,0.05,0.17,0.185,0.329,0.169c0.267-0.026,0.607-0.165,0.729,0.035 c0,0,0.021,0.007,0.039-0.001c0.18-0.088,0.243,0.001,0.329,0.054c0.078,0.049,0.172,0.069,0.334-0.011 c0.089-0.044,0.144-0.024,0.199-0.011c0.067,0.016,0.116,0.058,0.176,0.086c0.182,0.086,0.385,0.143,0.544,0.262 c0.181,0.137,0.434,0.164,0.711,0.159c0.197-0.003,0.379,0.022,0.488,0.144c0.115,0.128,0.289,0.168,0.43,0.258 c0.039,0.025,0.12-0.004,0.21-0.059c0.39-0.238,0.66-0.283,0.86-0.22c0.078,0.025,0.175,0.019,0.358-0.14 c0.17-0.148,0.252-0.162,0.311-0.13c0.028,0.015,0.066,0.04,0.128-0.022c0.24-0.239,0.351-0.245,0.507-0.312 c0.043-0.261,0.043-0.261,0.251-0.727c0.021-0.05,0.046-0.109,0.061-0.145c0.068-0.237,0.129-0.466,0.336-0.833 c0.028-0.05,0.039-0.095,0.045-0.128c0.041-0.236,0.106-0.5,0.112-0.695c0.009-0.289-0.02-0.532-0.039-0.787 c-0.021-0.217-0.039-0.393-0.062-0.627c-0.013-0.338-0.085-0.599-0.18-0.832c-0.105-0.256-0.22-0.499-0.211-0.903 c0.002-0.121-0.012-0.223-0.044-0.3c-0.225-0.542-0.497-1.024-0.876-1.359c-0.02-0.022-0.062-0.066-0.092-0.099 c-0.245-0.264-0.476-0.55-0.741-0.787c-0.241-0.215-0.518-0.377-0.78-0.561c-0.023-0.016-0.049-0.027-0.061-0.057 c-0.102-0.25-0.307-0.352-0.481-0.497c-0.184-0.14-0.248-0.188-0.448-0.34c-0.089-0.075-0.148-0.194-0.237-0.268 c-0.329-0.256-0.6-0.467-0.891-0.693c-0.21-0.162-0.41-0.341-0.635-0.481c-0.411-0.238-0.919-0.533-1.364-0.791 c-0.275-0.168-0.443-0.271-0.763-0.467c-0.472-0.243-1.019-0.525-1.539-0.793c0,0-0.044-0.017-0.063-0.025 c-0.441-0.182-0.895-0.343-1.319-0.548c-0.339-0.165-0.657-0.363-0.971-0.568c-0.11-0.072-0.268-0.07-0.385-0.133 c-0.288-0.169-0.468-0.275-0.714-0.419c-0.192-0.109-0.368-0.244-0.589-0.306c-0.189-0.053-0.375-0.106-0.491-0.274 c-0.037-0.053-0.105-0.06-0.165-0.078c-0.2-0.06-0.418-0.092-0.604-0.175c-0.254-0.112-0.459-0.305-0.767-0.329 c-0.049-0.003-0.079-0.039-0.117-0.062l-0.297-0.178l-1.685-0.981c-0.341-0.201-0.621-0.366-1.009-0.595 c-0.273-0.144-0.568-0.25-0.85-0.379c-0.149-0.081-0.141-0.077-0.319-0.174c-0.187-0.07-0.471-0.177-0.642-0.242 c-0.276-0.133-0.43-0.207-0.656-0.316c-0.175-0.082-0.341-0.178-0.532-0.233c-0.212-0.061-0.333-0.279-0.612-0.226 c-0.035,0.007-0.063-0.005-0.069-0.044c-0.027-0.168-0.152-0.171-0.278-0.173c-0.075-0.001-0.132-0.035-0.192-0.063 c-0.184-0.088-0.305-0.146-0.521-0.249c-0.338-0.138-0.724-0.296-1.076-0.441c-0.097-0.04-0.18-0.103-0.284-0.13 c-0.286-0.074-0.577-0.14-0.916-0.118c-0.322,0.018-0.609,0.035-0.951,0.054c-0.245,0.036-0.535,0.079-0.816,0.121 c-0.39,0.063-0.766,0.101-1.181,0.214c-0.379,0.104-0.724,0.145-1.072,0.193c-0.248,0.034-0.489,0.054-0.814,0.246 c-0.039,0.022-0.079,0.028-0.154,0.179c-0.048,0.176,0.074,0.109-0.017,0.342l-0.191,0.256L376.51,321.238z M434.472,363.081 l0.004-0.023c-0.039,0.024-0.075,0.036-0.117,0.074c-0.094,0.087-0.095,0.124-0.099,0.161c0,0-0.015,0.04-0.023,0.063l-0.237,0.001 c-0.083,0.002-0.137-0.034-0.325,0.093c-0.038,0.072-0.072,0.124-0.081,0.153l-0.136,0.5c-0.059,0.203-0.068,0.357-0.014,0.452 c0.081,0.143,0.15,0.296,0.344,0.316c0.033,0.003,0.045,0.031,0.058,0.055c0.048,0.089,0.105,0.194,0.153,0.284 c0.022,0.04,0.044,0.078-0.045,0.222c-0.11,0.177-0.08,0.225-0.027,0.248c0.14,0.061,0.3,0.102,0.429,0.175 c0.11,0.062,0.248,0.1,0.267,0.256c0.036,0.297,0.188,0.472,0.285,0.705c0.096,0.233,0.24,0.418,0.373,0.613 c0.052,0.077,0.168,0.089,0.191,0.194c0.037,0.171,0.146,0.266,0.229,0.388c0.018,0.026,0.021,0.073-0.008,0.142 c-0.126,0.297-0.045,0.386,0.089,0.426c0.062,0.019,0.11,0.053,0.147,0.099c0.053,0.068,0.077,0.166,0.136,0.228 c0.241,0.243,0.419,0.423,0.679,0.686c0.188,0.222,0.449,0.529,0.668,0.787c0.132,0.15,0.222,0.254,0.361,0.412 c0.096,0.116,0.165,0.26,0.279,0.357c0.103,0.086,0.185,0.193,0.281,0.286c0.332,0.318,0.577,0.725,0.932,1.021 c0.049,0.041,0.097,0.084,0.137,0.135c0.12,0.158,0.269,0.355,0.381,0.504c0.135,0.168,0.299,0.305,0.398,0.509 c0.154,0.313,0.379,0.558,0.581,0.824c0.195,0.243,0.306,0.382,0.514,0.64c0.195,0.282,0.448,0.647,0.647,0.934 c0.246,0.326,0.457,0.605,0.661,0.875c0.053,0.068,0.132,0.109,0.192,0.17c0.237,0.238,0.437,0.438,0.711,0.713 c0.142,0.129,0.326,0.216,0.478,0.336c0.152,0.12,0.318,0.228,0.423,0.393c0.174,0.275,0.588,0.317,0.682,0.67 c0.055,0.208,0.249,0.291,0.379,0.432l0.706,0.762c0.267,0.272,0.507,0.516,0.819,0.834c0.187,0.176,0.421,0.307,0.605,0.486 c0.332,0.35,0.603,0.635,0.904,0.953c0.508,0.538,1.015,1.074,1.53,1.619c0.096,0.101,0.242,0.155,0.313,0.278 c0.14,0.24,0.295,0.466,0.508,0.64c0.41,0.335,0.636,0.834,1.147,1.079c0.212,0.103,0.379,0.247,0.616,0.328 c0.057,0.02,0.069,0.081,0.112,0.114c0.099,0.076,0.12,0.22,0.278,0.243c0.265,0.039,0.629-0.014,0.698,0.209 c0,0,0.019,0.012,0.038,0.008c0.196-0.042,0.235,0.059,0.306,0.132c0.064,0.066,0.15,0.108,0.327,0.07 c0.097-0.021,0.145,0.011,0.195,0.037c0.061,0.032,0.099,0.085,0.149,0.126c0.156,0.127,0.338,0.231,0.463,0.385 c0.142,0.176,0.381,0.264,0.651,0.326c0.191,0.044,0.362,0.113,0.437,0.258c0.08,0.152,0.239,0.233,0.354,0.354 c0.032,0.033,0.118,0.026,0.218-0.006c0.436-0.136,0.709-0.114,0.888-0.004c0.07,0.043,0.165,0.061,0.381-0.049 c0.201-0.102,0.284-0.096,0.334-0.051c0.023,0.021,0.055,0.055,0.13,0.01c0.291-0.173,0.4-0.152,0.568-0.179 c0.105-0.242,0.105-0.242,0.421-0.644c0.033-0.043,0.071-0.094,0.095-0.125c0.124-0.213,0.239-0.421,0.529-0.725 c0.04-0.042,0.061-0.083,0.075-0.113c0.098-0.218,0.224-0.459,0.278-0.646c0.079-0.278,0.11-0.521,0.154-0.773 c0.032-0.216,0.058-0.391,0.093-0.624c0.07-0.331,0.063-0.603,0.027-0.852c-0.04-0.274-0.092-0.538,0.014-0.929 c0.032-0.117,0.042-0.219,0.03-0.302c-0.088-0.582-0.235-1.116-0.523-1.533c-0.015-0.026-0.044-0.079-0.066-0.119 c-0.175-0.316-0.33-0.65-0.531-0.945c-0.182-0.267-0.412-0.493-0.624-0.734c-0.018-0.021-0.041-0.038-0.046-0.07 c-0.039-0.267-0.214-0.416-0.349-0.6c-0.146-0.181-0.196-0.243-0.354-0.439c-0.068-0.095-0.097-0.224-0.167-0.318 c-0.259-0.328-0.472-0.599-0.701-0.889c-0.166-0.208-0.317-0.43-0.503-0.621c-0.343-0.331-0.768-0.739-1.139-1.097 c-0.228-0.23-0.367-0.37-0.632-0.637c-0.402-0.349-0.868-0.754-1.312-1.139c0,0-0.038-0.027-0.055-0.039 c-0.386-0.283-0.79-0.546-1.156-0.847c-0.292-0.241-0.554-0.509-0.812-0.783c-0.091-0.096-0.245-0.132-0.344-0.22 c-0.241-0.232-0.392-0.378-0.598-0.576c-0.161-0.152-0.302-0.324-0.502-0.437c-0.171-0.096-0.34-0.192-0.414-0.382 c-0.024-0.06-0.088-0.083-0.142-0.115c-0.181-0.106-0.386-0.188-0.548-0.312c-0.222-0.169-0.376-0.405-0.671-0.5 c-0.047-0.015-0.068-0.057-0.1-0.087l-0.248-0.242l-1.416-1.348c-0.284-0.269-0.55-0.557-0.847-0.814 c-0.233-0.203-0.497-0.375-0.742-0.566c-0.127-0.114-0.12-0.108-0.271-0.243c-0.166-0.112-0.418-0.281-0.571-0.384 c-0.239-0.193-0.372-0.3-0.568-0.459c-0.152-0.12-0.292-0.252-0.466-0.349c-0.193-0.108-0.261-0.349-0.545-0.361 c-0.035-0.001-0.06-0.019-0.057-0.059c0.011-0.17-0.109-0.202-0.231-0.233c-0.073-0.018-0.121-0.064-0.173-0.105 c-0.159-0.128-0.265-0.212-0.452-0.362c-0.298-0.212-0.639-0.454-0.95-0.675c-0.086-0.061-0.152-0.141-0.248-0.191 c-0.262-0.138-0.532-0.267-0.867-0.323c-0.318-0.055-0.602-0.104-0.94-0.162c-0.247-0.02-0.54-0.043-0.822-0.066 c-0.394-0.027-0.77-0.074-1.199-0.056c-0.393,0.016-0.738-0.021-1.088-0.052c-0.249-0.022-0.489-0.056-0.849,0.057 c-0.043,0.013-0.083,0.009-0.19,0.14c-0.086,0.161,0.048,0.123-0.093,0.33l-0.244,0.206L434.472,363.081z M480.405,417.733 l0.01-0.021c-0.044,0.013-0.082,0.015-0.132,0.041c-0.114,0.06-0.124,0.095-0.138,0.129c0,0-0.024,0.035-0.038,0.055l-0.228-0.061 c-0.08-0.02-0.123-0.069-0.338,0.004c-0.056,0.059-0.102,0.101-0.118,0.127l-0.263,0.447c-0.11,0.181-0.159,0.327-0.133,0.433 c0.04,0.159,0.067,0.325,0.249,0.395c0.031,0.012,0.035,0.042,0.042,0.069c0.023,0.099,0.05,0.215,0.073,0.314 c0.011,0.044,0.022,0.087-0.102,0.202c-0.153,0.142-0.136,0.196-0.091,0.232c0.119,0.096,0.263,0.176,0.368,0.281 c0.09,0.089,0.213,0.161,0.19,0.316c-0.044,0.296,0.057,0.504,0.089,0.754c0.032,0.25,0.121,0.465,0.198,0.688 c0.03,0.088,0.139,0.13,0.133,0.237c-0.009,0.175,0.071,0.295,0.119,0.435c0.01,0.03,0.001,0.076-0.045,0.134 c-0.2,0.253-0.145,0.36-0.027,0.434c0.055,0.034,0.092,0.08,0.115,0.134c0.033,0.079,0.031,0.18,0.071,0.255 c0.168,0.298,0.292,0.518,0.473,0.84c0.123,0.263,0.293,0.628,0.436,0.935c0.087,0.179,0.147,0.303,0.239,0.493 c0.062,0.137,0.09,0.294,0.175,0.417c0.076,0.11,0.127,0.235,0.195,0.349c0.235,0.395,0.365,0.85,0.627,1.229 c0.036,0.053,0.071,0.107,0.096,0.166c0.073,0.184,0.164,0.413,0.233,0.586c0.085,0.197,0.207,0.373,0.249,0.595 c0.065,0.343,0.216,0.638,0.339,0.948c0.123,0.285,0.193,0.449,0.324,0.753c0.113,0.323,0.259,0.742,0.374,1.071 c0.15,0.379,0.278,0.704,0.402,1.019c0.033,0.079,0.098,0.141,0.14,0.215c0.165,0.292,0.303,0.537,0.494,0.875 c0.102,0.162,0.256,0.296,0.37,0.451c0.114,0.156,0.245,0.304,0.302,0.491c0.096,0.31,0.481,0.463,0.478,0.827 c-0.003,0.215,0.161,0.347,0.249,0.517l0.475,0.922c0.183,0.333,0.349,0.633,0.563,1.023c0.133,0.219,0.322,0.409,0.452,0.63 c0.225,0.426,0.408,0.774,0.613,1.161c0.343,0.654,0.686,1.306,1.034,1.969c0.065,0.122,0.191,0.215,0.226,0.351 c0.07,0.269,0.159,0.527,0.316,0.753c0.304,0.433,0.385,0.974,0.81,1.349c0.177,0.156,0.298,0.34,0.504,0.482 c0.049,0.035,0.044,0.097,0.076,0.14c0.074,0.1,0.056,0.244,0.201,0.309c0.244,0.109,0.608,0.157,0.614,0.39 c0,0,0.015,0.017,0.035,0.018c0.2,0.013,0.21,0.121,0.258,0.21c0.044,0.081,0.116,0.145,0.296,0.156 c0.099,0.006,0.137,0.05,0.178,0.089c0.05,0.047,0.072,0.108,0.109,0.162c0.115,0.164,0.262,0.314,0.34,0.496 c0.089,0.208,0.295,0.357,0.537,0.49c0.172,0.095,0.317,0.207,0.351,0.367c0.035,0.168,0.166,0.289,0.244,0.437 c0.021,0.041,0.106,0.057,0.211,0.054c0.457-0.012,0.713,0.083,0.855,0.238c0.055,0.061,0.142,0.103,0.38,0.057 c0.221-0.043,0.299-0.015,0.335,0.042c0.017,0.027,0.038,0.068,0.122,0.045c0.327-0.087,0.426-0.037,0.595-0.017 c0.167-0.204,0.167-0.204,0.581-0.504c0.043-0.033,0.094-0.071,0.125-0.095c0.177-0.171,0.344-0.34,0.707-0.553 c0.049-0.029,0.081-0.063,0.103-0.089c0.154-0.184,0.341-0.38,0.444-0.546c0.152-0.246,0.248-0.471,0.358-0.702 c0.09-0.199,0.162-0.36,0.259-0.575c0.158-0.3,0.225-0.563,0.257-0.812c0.036-0.275,0.057-0.544,0.266-0.891 c0.062-0.104,0.1-0.2,0.111-0.283c0.074-0.584,0.077-1.139-0.087-1.62c-0.007-0.029-0.021-0.089-0.031-0.132 c-0.082-0.353-0.142-0.717-0.255-1.056c-0.102-0.308-0.264-0.586-0.402-0.877c-0.012-0.025-0.029-0.048-0.025-0.08 c0.035-0.268-0.093-0.459-0.174-0.673c-0.091-0.214-0.123-0.287-0.222-0.52c-0.04-0.11-0.033-0.243-0.074-0.351 c-0.161-0.386-0.294-0.705-0.436-1.047c-0.104-0.246-0.189-0.501-0.317-0.735c-0.242-0.412-0.541-0.921-0.802-1.366 c-0.157-0.283-0.254-0.457-0.437-0.786c-0.294-0.445-0.634-0.961-0.958-1.452c0,0-0.03-0.037-0.043-0.053 c-0.295-0.377-0.616-0.739-0.887-1.128c-0.216-0.311-0.397-0.641-0.572-0.974c-0.062-0.117-0.2-0.193-0.273-0.305 c-0.17-0.289-0.277-0.47-0.423-0.716c-0.115-0.19-0.204-0.394-0.367-0.556c-0.139-0.138-0.276-0.276-0.297-0.48 c-0.007-0.064-0.063-0.104-0.107-0.149c-0.148-0.15-0.323-0.284-0.447-0.447c-0.169-0.222-0.254-0.492-0.514-0.663 c-0.041-0.027-0.05-0.073-0.073-0.111l-0.174-0.3l-1.007-1.679c-0.202-0.336-0.383-0.685-0.601-1.012 c-0.171-0.258-0.38-0.495-0.566-0.744c-0.092-0.143-0.087-0.136-0.197-0.307c-0.131-0.152-0.329-0.383-0.449-0.523 c-0.179-0.249-0.28-0.389-0.427-0.594c-0.114-0.156-0.215-0.321-0.357-0.461c-0.158-0.156-0.16-0.406-0.43-0.493 c-0.034-0.011-0.053-0.034-0.04-0.072c0.056-0.161-0.051-0.224-0.162-0.286c-0.066-0.037-0.1-0.094-0.14-0.147 c-0.12-0.165-0.2-0.275-0.341-0.469c-0.232-0.284-0.497-0.607-0.739-0.903c-0.067-0.081-0.11-0.177-0.189-0.25 c-0.218-0.202-0.443-0.398-0.752-0.541c-0.293-0.137-0.554-0.259-0.865-0.405c-0.233-0.084-0.51-0.184-0.776-0.281 c-0.373-0.129-0.724-0.274-1.143-0.37c-0.383-0.087-0.707-0.214-1.037-0.336c-0.235-0.087-0.457-0.183-0.834-0.167 c-0.045,0.002-0.083-0.013-0.22,0.085c-0.125,0.133,0.014,0.131-0.177,0.294l-0.289,0.135L480.405,417.733z M509.704,482.785 l0.015-0.017c-0.046,0-0.083-0.009-0.138,0.002c-0.126,0.025-0.146,0.057-0.169,0.085c0,0-0.033,0.027-0.052,0.042l-0.202-0.123 c-0.071-0.042-0.099-0.101-0.325-0.09c-0.07,0.041-0.127,0.068-0.149,0.089l-0.378,0.355c-0.156,0.143-0.245,0.269-0.249,0.378 c-0.006,0.164-0.027,0.331,0.128,0.448c0.026,0.02,0.022,0.05,0.021,0.078c-0.006,0.101-0.013,0.22-0.018,0.322 c-0.002,0.045-0.004,0.089-0.155,0.165c-0.187,0.093-0.186,0.15-0.153,0.197c0.087,0.125,0.202,0.243,0.274,0.373 c0.061,0.11,0.159,0.215,0.095,0.356c-0.122,0.271-0.086,0.499-0.126,0.748c-0.04,0.249-0.016,0.481-0.005,0.716 c0.004,0.093,0.096,0.163,0.06,0.265c-0.059,0.165-0.016,0.303-0.009,0.45c0.001,0.032-0.02,0.073-0.081,0.116 c-0.263,0.187-0.239,0.304-0.146,0.408c0.043,0.048,0.067,0.103,0.074,0.161c0.01,0.085-0.02,0.181-0.003,0.265 c0.076,0.333,0.132,0.579,0.214,0.939c0.044,0.287,0.104,0.684,0.155,1.018c0.034,0.196,0.057,0.331,0.092,0.539 c0.02,0.149,0.001,0.307,0.047,0.449c0.041,0.127,0.054,0.261,0.086,0.39c0.11,0.445,0.109,0.917,0.255,1.354 c0.02,0.061,0.039,0.122,0.046,0.186c0.017,0.197,0.038,0.443,0.054,0.628c0.024,0.213,0.089,0.416,0.067,0.641 c-0.034,0.346,0.028,0.671,0.06,1.002c0.035,0.308,0.056,0.485,0.093,0.813c0.016,0.341,0.037,0.783,0.054,1.131 c0.035,0.405,0.065,0.752,0.094,1.089c0.008,0.085,0.052,0.162,0.071,0.245c0.075,0.326,0.138,0.6,0.225,0.977 c0.051,0.184,0.162,0.355,0.227,0.537c0.065,0.182,0.145,0.361,0.145,0.556c0,0.324,0.329,0.579,0.221,0.927 c-0.064,0.205,0.056,0.377,0.091,0.565l0.186,1.017c0.081,0.371,0.153,0.704,0.247,1.138c0.065,0.247,0.188,0.483,0.247,0.731 c0.093,0.471,0.169,0.855,0.253,1.284c0.139,0.723,0.277,1.444,0.418,2.177c0.026,0.136,0.119,0.26,0.112,0.401 c-0.014,0.277-0.004,0.549,0.082,0.809c0.167,0.5,0.086,1.04,0.378,1.52c0.122,0.2,0.186,0.41,0.341,0.606 c0.037,0.047,0.014,0.105,0.032,0.156c0.042,0.116-0.017,0.248,0.103,0.353c0.2,0.175,0.533,0.328,0.469,0.551 c0,0,0.009,0.021,0.028,0.028c0.187,0.071,0.164,0.177,0.184,0.275c0.018,0.09,0.068,0.172,0.237,0.235 c0.093,0.035,0.116,0.088,0.144,0.137c0.034,0.06,0.037,0.124,0.057,0.186c0.063,0.19,0.158,0.376,0.178,0.573 c0.022,0.225,0.174,0.427,0.366,0.625c0.135,0.141,0.24,0.291,0.226,0.453c-0.015,0.17,0.074,0.324,0.103,0.488 c0.008,0.045,0.084,0.085,0.185,0.114c0.439,0.124,0.655,0.291,0.744,0.481c0.035,0.074,0.105,0.141,0.346,0.168 c0.224,0.025,0.29,0.075,0.307,0.14c0.008,0.031,0.016,0.076,0.103,0.079c0.338,0.015,0.418,0.092,0.573,0.162 c0.221-0.145,0.221-0.144,0.705-0.307c0.051-0.018,0.111-0.04,0.148-0.053c0.22-0.11,0.43-0.221,0.84-0.317 c0.056-0.013,0.096-0.036,0.124-0.054c0.201-0.129,0.439-0.261,0.587-0.389c0.219-0.189,0.378-0.376,0.552-0.564 c0.145-0.164,0.263-0.296,0.419-0.473c0.238-0.239,0.378-0.471,0.485-0.701c0.117-0.252,0.217-0.504,0.519-0.775 c0.09-0.081,0.155-0.162,0.19-0.238c0.246-0.539,0.404-1.069,0.393-1.579c0.002-0.03,0.006-0.091,0.009-0.136 c0.027-0.363,0.078-0.73,0.066-1.088c-0.009-0.325-0.083-0.641-0.128-0.96c-0.004-0.027-0.013-0.055,0-0.084 c0.113-0.247,0.047-0.469,0.031-0.697c-0.026-0.232-0.035-0.312-0.063-0.564c-0.007-0.117,0.039-0.242,0.03-0.359 c-0.04-0.418-0.074-0.763-0.11-1.133c-0.029-0.266-0.037-0.536-0.092-0.798c-0.112-0.466-0.25-1.042-0.371-1.546 c-0.07-0.317-0.113-0.512-0.194-0.881c-0.153-0.513-0.33-1.107-0.498-1.672c0,0-0.018-0.044-0.026-0.063 c-0.178-0.447-0.376-0.888-0.523-1.34c-0.119-0.361-0.199-0.729-0.272-1.099c-0.026-0.13-0.138-0.243-0.174-0.371 c-0.079-0.326-0.129-0.531-0.197-0.81c-0.056-0.215-0.084-0.436-0.195-0.639c-0.095-0.173-0.187-0.344-0.149-0.545 c0.012-0.064-0.031-0.118-0.06-0.173c-0.098-0.187-0.226-0.366-0.297-0.558c-0.095-0.262-0.105-0.544-0.305-0.783 c-0.032-0.038-0.028-0.084-0.039-0.127l-0.083-0.338c-0.163-0.634-0.326-1.272-0.487-1.899c-0.098-0.386-0.179-0.702-0.291-1.142 c-0.09-0.297-0.219-0.584-0.329-0.876c-0.048-0.164-0.046-0.155-0.104-0.35c-0.083-0.183-0.209-0.461-0.286-0.629 c-0.1-0.291-0.157-0.453-0.239-0.692c-0.065-0.183-0.115-0.37-0.21-0.544c-0.107-0.194-0.041-0.435-0.277-0.595 c-0.029-0.02-0.041-0.048-0.018-0.08c0.098-0.139,0.012-0.229-0.076-0.32c-0.053-0.054-0.069-0.119-0.092-0.181 c-0.068-0.193-0.113-0.321-0.193-0.548c-0.142-0.338-0.305-0.724-0.453-1.076c-0.042-0.096-0.057-0.2-0.113-0.293 c-0.154-0.255-0.313-0.508-0.569-0.732c-0.242-0.214-0.458-0.405-0.714-0.633c-0.206-0.168-0.436-0.328-0.666-0.488 c-0.325-0.228-0.619-0.467-0.995-0.676c-0.343-0.192-0.618-0.404-0.9-0.614c-0.201-0.149-0.387-0.304-0.753-0.395 c-0.043-0.011-0.076-0.035-0.235,0.02c-0.158,0.092-0.023,0.13-0.252,0.233l-0.316,0.049L509.704,482.785z" style="fill: rgb(255, 255, 255);"/></g></svg>